<svg xmlns="http://www.w3.org/2000/svg" xmlns:xlink="http://www.w3.org/1999/xlink" viewBox="0 0 100 61.9"><defs><style>.cls-1{fill:#fff;}.cls-2{fill:url(#linear-gradient);}.cls-3{fill:url(#linear-gradient-2);}</style><linearGradient id="linear-gradient" x1="-922.61" y1="-235.12" x2="-939.65" y2="-277.31" gradientTransform="matrix(0.34, 0.94, -0.94, 0.34, 154.98, 999.84)" gradientUnits="userSpaceOnUse"><stop offset="0.03" stop-color="#fff"/><stop offset="0.08" stop-color="#fff"/><stop offset="0.39" stop-color="#fff"/><stop offset="0.4" stop-color="#f9f9f9"/><stop offset="0.63" stop-color="#909090"/><stop offset="0.81" stop-color="#434343"/><stop offset="0.94" stop-color="#121212"/><stop offset="1"/></linearGradient><linearGradient id="linear-gradient-2" x1="-1268.89" y1="978.59" x2="-1294.18" y2="996.36" gradientTransform="matrix(-0.91, 0.42, -0.42, -0.91, -669.62, 1472.41)" gradientUnits="userSpaceOnUse"><stop offset="0.31" stop-color="#fff"/><stop offset="0.5" stop-color="#bcbcbc"/><stop offset="0.94" stop-color="#171717"/><stop offset="1"/></linearGradient></defs><g id="Layer_2" data-name="Layer 2"><g id="Layer_1-2" data-name="Layer 1"><path class="cls-1" d="M41.87,50a22.76,22.76,0,1,1-6.76-31.47A22.79,22.79,0,0,1,41.87,50ZM6.46,27.05a19.41,19.41,0,1,0,26.83-5.76A19.42,19.42,0,0,0,6.46,27.05Z"/><path class="cls-1" d="M35.73,46a15.45,15.45,0,1,1-4.58-21.37A15.48,15.48,0,0,1,35.73,46ZM12.59,31a12.1,12.1,0,1,0,16.74-3.59A12.12,12.12,0,0,0,12.59,31Z"/><circle class="cls-1" cx="22.49" cy="37.28" r="7.9"/><path class="cls-1" d="M49.44,61.9A2.14,2.14,0,0,1,47.29,60c-2.51-21.63-5.12-34.89-11.71-42.95-3.12-3.82-7.24-6.62-13-8.82C17.37,6.22,10.5,4.6.34,3L.82,0C11.19,1.66,18.24,3.34,23.69,5.42c6.24,2.4,10.76,5.49,14.22,9.73,6.3,7.71,9.16,19.43,11.53,37.65C51.82,34.58,54.67,22.86,61,15.15c3.47-4.24,8-7.33,14.23-9.73C80.64,3.34,87.7,1.66,98.07,0l.48,3c-10.16,1.63-17,3.25-22.27,5.26-5.73,2.2-9.86,5-13,8.82-6.58,8.06-9.19,21.32-11.71,43A2.12,2.12,0,0,1,49.44,61.9Z"/><polygon class="cls-1" points="42.7 25.55 56.21 25.55 49.45 58.83 42.7 25.55"/><path class="cls-2" d="M72.16,59.46A22.76,22.76,0,1,1,99.42,42.35,22.78,22.78,0,0,1,72.16,59.46Zm9.41-41.11A19.41,19.41,0,1,0,96.15,41.6,19.44,19.44,0,0,0,81.57,18.35Z"/><path class="cls-3" d="M61.93,35.12A15.46,15.46,0,1,1,75.09,52.57,15.47,15.47,0,0,1,61.93,35.12ZM89.22,39a12.1,12.1,0,1,0-13.67,10.3A12.11,12.11,0,0,0,89.22,39Z"/><circle class="cls-1" cx="77.44" cy="36.91" r="7.9"/><path class="cls-1" d="M79.29,35.53v-21h-.88a22.81,22.81,0,0,0-2.34,0h-.59v0A22.76,22.76,0,0,0,76.12,60l.16-3.35A19.41,19.41,0,0,1,75.48,18v4A15.45,15.45,0,0,0,77.8,52.74l-.11-3.35a12.1,12.1,0,0,1-2.21-24.06v10.2Z"/></g></g></svg>