<?xml version="1.0" encoding="UTF-8" standalone="no"?>
<svg 
    width="250px"
    height="156px"
    xmlns="http://www.w3.org/2000/svg" 
    xmlns:xlink="http://www.w3.org/1999/xlink" 
    viewBox="0 0 250 156.08">
    <defs>
        <style>
            .cls-1{fill:#2828d4;}.cls-2{fill:url(#linear-gradient);}.cls-3{fill:url(#linear-gradient-2);}
        </style>
        <linearGradient 
            id="linear-gradient" 
            x1="-81.83" 
            y1="838.39" 
            x2="-124.81" 
            y2="732" 
            gradientTransform="matrix(0.34, 0.94, -0.94, 0.34, 965.87, -76.74)" 
            gradientUnits="userSpaceOnUse">
            <stop 
                offset="0.03" 
                stop-color="#2828d4"/>
            <stop 
                offset="0.08" 
                stop-color="#2828d4"/>
            <stop 
                offset="0.39" 
                stop-color="#2828d4"/>
            <stop 
                offset="0.57" 
                stop-color="#7070e2"/>
            <stop 
                offset="0.78" 
                stop-color="#bdbdf2"/>
            <stop 
                offset="0.93" 
                stop-color="#ededfb"/>
            <stop 
                offset="1" 
                stop-color="#fff"/>
        </linearGradient>
        <linearGradient 
            id="linear-gradient-2" 
            x1="892.11" 
            y1="1436.25" 
            x2="828.35" 
            y2="1481.08" 
            gradientTransform="matrix(-0.91, 0.42, -0.42, -0.91, 1586.87, 1055.9)" 
            gradientUnits="userSpaceOnUse">
            <stop 
                offset="0.29" 
                stop-color="#2828d4"/>
            <stop 
                offset="0.52" 
                stop-color="#6b6be1"/>
            <stop 
                offset="1" 
                stop-color="#fff"/>
        </linearGradient>
    </defs>
    <g 
        id="Layer_2" 
        data-name="Layer 2">
        <g 
            id="Layer_1-2" 
            data-name="Layer 1">
            <path 
                class="cls-1" 
                d="M105.56,125.94a57.39,57.39,0,1,1-17-79.35A57.45,57.45,0,0,1,105.56,125.94ZM16.29,68.21A48.93,48.93,0,1,0,84,53.69,49,49,0,0,0,16.29,68.21Z"/>
            <path 
                class="cls-1" 
                d="M90.09,115.94A39,39,0,1,1,78.53,62.06,39,39,0,0,1,90.09,115.94ZM31.76,78.21a30.51,30.51,0,1,0,42.18-9A30.54,30.54,0,0,0,31.76,78.21Z"/>
            <circle 
                class="cls-1" 
                cx="56.7" 
                cy="93.99" 
                r="19.93"/>
            <path 
                class="cls-1" 
                d="M124.67,156.08a5.37,5.37,0,0,1-5.42-4.79c-6.33-54.55-12.92-88-29.53-108.29C81.86,33.37,71.46,26.3,57,20.76,43.79,15.69,26.48,11.6.86,7.49L2.06,0C28.22,4.19,46,8.41,59.73,13.68c15.73,6,27.13,13.82,35.87,24.52,15.88,19.43,23.08,49,29.07,94.94,6-45.95,13.19-75.51,29.07-94.94,8.74-10.7,20.14-18.49,35.87-24.52C203.34,8.41,221.12,4.19,247.28,0l1.2,7.49c-25.62,4.11-42.93,8.2-56.15,13.27C177.88,26.3,167.48,33.37,159.62,43,143,63.32,136.42,96.74,130.09,151.29A5.37,5.37,0,0,1,124.67,156.08Z"/>
            <polygon 
                class="cls-1" 
                points="107.66 64.43 141.72 64.43 124.69 148.33 107.66 64.43"/>
            <path 
                class="cls-2" 
                d="M179.8,150.75a57.39,57.39,0,1,1,68.75-43.14A57.46,57.46,0,0,1,179.8,150.75ZM203.52,47.1a48.93,48.93,0,1,0,36.78,58.62A49,49,0,0,0,203.52,47.1Z"/>
            <path 
                class="cls-3" 
                d="M154,89.38a39,39,0,1,1,33.16,44A39,39,0,0,1,154,89.38Zm68.79,9.67a30.51,30.51,0,1,0-34.45,26A30.53,30.53,0,0,0,222.81,99.05Z"/>
            <circle 
                class="cls-1" 
                cx="193.11" 
                cy="93.9" 
                r="19.93"/>
            <path 
                class="cls-1" 
                d="M197.77,90.4V37.55h-2.2a58.25,58.25,0,0,0-5.91,0h-1.49v.1a57.39,57.39,0,0,0,1.61,114.53l.42-8.44a48.94,48.94,0,0,1-2-97.6v10A39,39,0,0,0,194,133.81l-.29-8.45a30.51,30.51,0,0,1-5.57-60.67V90.4Z"/>
        </g>
    </g>
</svg>