<?xml version="1.0" encoding="UTF-8" standalone="no"?>
<svg
    width="512.56"
    height="464.82"
    viewBox="0 0 512.56 464.82"
    id="Layer_1"
    data-name="Layer 1"
    xmlns="http://www.w3.org/2000/svg"
    xmlns:xlink="http://www.w3.org/1999/xlink">
    <defs>
        <style>
            .cls-1,.cls-6{fill:none;}.cls-13,.cls-2,.cls-3,.cls-4,.cls-9{fill:#fff;}.cls-13,.cls-2,.cls-3,.cls-4,.cls-6{stroke:#000;}.cls-13,.cls-2,.cls-5{stroke-miterlimit:10;}.cls-2{stroke-width:1.12px;}.cls-3,.cls-4,.cls-6{stroke-linecap:round;stroke-linejoin:round;}.cls-3,.cls-5,.cls-6{stroke-width:1.12px;}.cls-4{stroke-width:1.09px;}.cls-5{stroke:#fff;}.cls-7{clip-path:url(#clip-path);}.cls-8{fill:#d7e7ff;}.cls-10{fill:#0878ff;}.cls-11{fill:#83b6ff;}.cls-12{fill:#4bff00;}.cls-13{stroke-width:1.12px;}
        </style>
        <clipPath id="clip-path"
            transform="translate(-713.07 -317.36)">
            <path class="cls-1"
                d="M925.4,562.28l170,98.1a9.48,9.48,0,0,1,.1,16.37L990.12,739.22a17,17,0,0,1-17.17.08L803.34,641.05Z"/>
        </clipPath>
    </defs>
    <path 
        d="M937.23,505.42a7.18,7.18,0,0,0-7.13.21l-44.48,27.08a8.24,8.24,0,0,0,.26,14.21l246,137.51a17.67,17.67,0,0,0,18-.42l45.77-28.47a7.3,7.3,0,0,0-.41-12.63Z"
        transform="translate(-713.07 -317.36)"/>
    <path class="cls-2"
        d="M1220.19,466.77,955.07,336.66a8.58,8.58,0,0,0-7.17-.2h0l0,0,0,0h0l0,0,0,0h0l0,0h0l0,0,0,0h0l0,0h0l0,0,0,0h0l0,0,0,0h0l0,0h0l0,0,0,0h0l0,0h0l0,0,0,0h0l0,0h0l0,0,0,0h0l0,0,0,0h0l0,0h0l0,0,0,0h0l0,0h0l0,0,0,0h0l0,0h0l0,0,0,0h0l0,0a.05.05,0,0,0,0,0h0l0,0h0a.05.05,0,0,1,0,0l0,0h0l0,0h0l0,0,0,0h0l0,0,0,0h0l0,0h0l0,0,0,0h0l0,0h0l0,0,0,0h0l0,0h0l0,0,0,0h0l0,0,0,0h0l0,0h0l0,0,0,0h0l0,0h0l0,0,0,0h0l0,0h0l0,0,0,0h0l0,0,0,0h0l0,0h0l0,0,0,0h0l0,0h0l0,0,0,0h0l0,0,0,0h0l0,0h0l0,0,0,0h0l0,0h0l0,0,0,0h0l0,0h0l0,0,0,0h0l0,0,0,0h0l0,0h0l0,0,0,0h0l0,0h0l0,0,0,0h0l0,0h0l0,0,0,0h0l0,0,0,0h0l0,0h0l0,0,0,0h0l0,0h0l0,0,0,0h0l0,0,0,0h0l0,0h0l0,0,0,0h0l0,0h0l0,0,0,0h0l0,0h0l0,0,0,0h0l0,0,0,0h0l0,0h0l0,0,0,0h0l0,0h0l0,0,0,0h0l0,0,0,0h0l0,0h0a8.74,8.74,0,0,0-4.89,5.26q-31.64,93.68-63.28,187.34a8.76,8.76,0,0,0,4,10.44l256.4,144.55a8.6,8.6,0,0,0,8.13.19h0l0,0,0,0h0l0,0h0l0,0,0,0h0l0,0h0l0,0,0,0h0l0,0,0,0h0l0,0h0l0,0,0,0h0l0,0h0l0,0,0,0h0l0,0h0l0,0,0,0h0l0,0,0,0h0l0,0h0l0,0,0,0h0l0,0h0l0,0,0,0h0l0,0,0,0h0l0,0h0l0,0,0,0h0l0,0h0l0,0,0,0h0l0,0h0l0,0,0,0h0l0,0,0,0h0l0,0h0l0,0,0,0h0l0,0h0l0,0,0,0h0l0,0h0l0,0,0,0h0l0,0,0,0h0l0,0h0l0,0,0,0h0l0,0h0l0,0,0,0h0l0,0,0,0h0l0,0h0l0,0,0,0h0l0,0h0l0,0,0,0h0l0,0h0l0,0,0,0h0l0,0,0,0h0l0,0h0l0,0,0,0h0l0,0h0l0,0,0,0h0l0,0,0,0h0l0,0h0l0,0,0,0h0l0,0h0l0,0,0,0h0l0,0h0l0,0,0,0h0l0,0,0,0h0l0,0h0l0,0,0,0h0l0,0h0l0,0,0,0h0l0,0h0l0,0,0,0h0l0,0,0,0h0l0,0h0l0,0,0,0h0l0,0h0l0,0,0,0h0l0,0,0,0h0l0,0h0l0,0,0,0h0l0,0h0l0,0,0,0h0l0,0h0l0,0,0,0h0l0,0,0,0h0l0,0h0l0,0,0,0h0a8.62,8.62,0,0,0,4.31-4.88l72-201.78A8.78,8.78,0,0,0,1220.19,466.77Z"
        transform="translate(-713.07 -317.36)"/>
    <path class="cls-2"
        d="M873,532.56q31.65-93.69,63.29-187.39a8.66,8.66,0,0,1,12-5L1213.4,470.27a8.78,8.78,0,0,1,4.37,10.82q-36,100.91-72,201.82a8.66,8.66,0,0,1-12.42,4.67L877,543A8.77,8.77,0,0,1,873,532.56Z"
        transform="translate(-713.07 -317.36)"/>
    <path class="cls-3"
        d="M907.66,604a7.24,7.24,0,0,0-.26-12.41l-55.76-32a17,17,0,0,0-17,0L726,622.56a7.81,7.81,0,0,0,0,13.51l57.86,33.6a19.54,19.54,0,0,0,20.21-.37Z"
        transform="translate(-713.07 -317.36)"/>
    <path class="cls-3"
        d="M925.8,602.31l170,98.1a9.49,9.49,0,0,1,.09,16.37L990.52,779.25a17,17,0,0,1-17.17.08l-169.6-98.25Z"
        transform="translate(-713.07 -317.36)"/>
    <path 
        d="M1123.41,692.2l-233.62-133a6.41,6.41,0,0,0-6.34,11.15l233.61,133a6.42,6.42,0,0,0,8.75-2.4A6.41,6.41,0,0,0,1123.41,692.2Z"
        transform="translate(-713.07 -317.36)"/>
    <line class="cls-4"
        x1="59.53"
        y1="278.23"
        x2="138.81"
        y2="322.24"/>
    <path 
        d="M1199,532.41l7.87-6.55-54.38,153a10.28,10.28,0,0,1-7.65,6.47Z"
        transform="translate(-713.07 -317.36)"/>
    <path class="cls-5"
        d="M926.78,582.64l170,98.1a9.47,9.47,0,0,1,.1,16.36L991.5,759.57a17,17,0,0,1-17.17.08l-169.6-98.24Z"
        transform="translate(-713.07 -317.36)"/>
    <path class="cls-3"
        d="M925.67,562.56l170,98.1a9.49,9.49,0,0,1,.1,16.37L990.39,739.5a17,17,0,0,1-17.18.08l-169.6-98.25Z"
        transform="translate(-713.07 -317.36)"/>
    <path class="cls-6"
        d="M926,562.47l170,98.1a9.49,9.49,0,0,1,.09,16.37L990.69,739.41a17,17,0,0,1-17.17.08l-169.6-98.25Z"
        transform="translate(-713.07 -317.36)"/>
    <g class="cls-7">
        <rect class="cls-8"
            x="125.25"
            y="241.99"
            width="17.28"
            height="190.13"/>
        <path class="cls-8"
            d="M859,752.82H835V556h24Zm-17.28-6.69h10.59V562.69H841.67Z"
            transform="translate(-713.07 -317.36)"/>
        <rect class="cls-8"
            x="162.12"
            y="241.99"
            width="17.28"
            height="190.13"/>
        <path class="cls-8"
            d="M895.82,752.82h-24V556h24Zm-17.28-6.69h10.59V562.69H878.54Z"
            transform="translate(-713.07 -317.36)"/>
        <rect class="cls-8"
            x="198.99"
            y="241.99"
            width="17.28"
            height="190.13"/>
        <path class="cls-8"
            d="M932.69,752.82h-24V556h24Zm-17.29-6.69H926V562.69H915.4Z"
            transform="translate(-713.07 -317.36)"/>
        <rect class="cls-8"
            x="235.86"
            y="241.99"
            width="17.28"
            height="190.13"/>
        <path class="cls-8"
            d="M969.56,752.82h-24V556h24Zm-17.29-6.69h10.6V562.69h-10.6Z"
            transform="translate(-713.07 -317.36)"/>
        <rect class="cls-8"
            x="272.73"
            y="241.99"
            width="17.28"
            height="190.13"/>
        <path class="cls-8"
            d="M1006.43,752.82h-24V556h24Zm-17.29-6.69h10.59V562.69H989.14Z"
            transform="translate(-713.07 -317.36)"/>
        <rect class="cls-8"
            x="309.6"
            y="241.99"
            width="17.28"
            height="190.13"/>
        <path class="cls-8"
            d="M1043.29,752.82h-24V556h24ZM1026,746.13h10.59V562.69H1026Z"
            transform="translate(-713.07 -317.36)"/>
        <rect class="cls-8"
            x="346.46"
            y="241.99"
            width="17.28"
            height="190.13"/>
        <path class="cls-8"
            d="M1080.16,752.82h-24V556h24Zm-17.28-6.69h10.59V562.69h-10.59Z"
            transform="translate(-713.07 -317.36)"/>
    </g>
    <path class="cls-6"
        d="M925.23,562.45l170,98.1a9.47,9.47,0,0,1,.09,16.36L990,739.38a17,17,0,0,1-17.18.09l-169.6-98.25Z"
        transform="translate(-713.07 -317.36)"/>
    <rect class="cls-9"
        x="0.57"
        y="0.57"
        width="412.59"
        height="256.47"
        rx="14"/>
    <path 
        d="M1118.42,575h-397a8.38,8.38,0,0,1-8.37-8.37V325.73a8.38,8.38,0,0,1,8.37-8.37h397a8.38,8.38,0,0,1,8.38,8.37V566.6A8.38,8.38,0,0,1,1118.42,575Zm-397-256.47a7.24,7.24,0,0,0-7.23,7.23V566.6a7.24,7.24,0,0,0,7.23,7.23h397a7.24,7.24,0,0,0,7.24-7.23V325.73a7.24,7.24,0,0,0-7.24-7.23Z"
        transform="translate(-713.07 -317.36)"/>
    <rect class="cls-10"
        x="126.61"
        y="62.46"
        width="119.87"
        height="119.87"
        rx="14"/>
    <rect class="cls-8"
        x="126.44"
        y="189.02"
        width="186.01"
        height="24.53"
        rx="12.27"/>
    <rect class="cls-11"
        x="126.65"
        y="219.97"
        width="186.01"
        height="24.53"
        rx="12.27"/>
    <rect class="cls-8"
        x="134.93"
        y="8.66"
        width="143.86"
        height="14.78"
        rx="7.39"/>
    <path class="cls-8"
        d="M791.28,381.21h-58a7.8,7.8,0,0,0-7.8,7.81v13.57l58.27.08A3.35,3.35,0,0,1,787.1,406v8.92a3.34,3.34,0,0,1-3.35,3.34l-58.26-.08V554.33a7.81,7.81,0,0,0,7.8,7.81h58a7.81,7.81,0,0,0,7.8-7.81V389A7.8,7.8,0,0,0,791.28,381.21Z"
        transform="translate(-713.07 -317.36)"/>
    <circle class="cls-8"
        cx="20.78"
        cy="17.02"
        r="8.36"/>
    <circle cx="20.78" 
        cy="17.02"
        r="8.36"/>
    <circle class="cls-9"
        cx="26.08"
        cy="206.22"
        r="4.93"/>
    <circle class="cls-9"
        cx="26.08"
        cy="220.34"
        r="4.93"/>
    <circle class="cls-9"
        cx="26.08"
        cy="234.83"
        r="4.93"/>
    <circle class="cls-10"
        cx="186.65"
        cy="128.81"
        r="41.26"/>
    <path class="cls-9"
        d="M899.72,489.38a43.22,43.22,0,1,1,43.21-43.22A43.27,43.27,0,0,1,899.72,489.38Zm0-82.52A39.31,39.31,0,1,0,939,446.16,39.34,39.34,0,0,0,899.72,406.86Z"
        transform="translate(-713.07 -317.36)"/>
    <circle class="cls-9"
        cx="235.72"
        cy="73.05"
        r="6.13"/>
    <path class="cls-12"
        d="M899.94,402.85a43.25,43.25,0,0,1,43.21,43.21"
        transform="translate(-713.07 -317.36)"/>
    <rect x="252.84"
        y="62.46"
        width="119.87"
        height="119.87"
        rx="14"/>
    <path class="cls-9"
        d="M1086.22,424.89v-1.15H965.79v1.15h15.54v15.74H965.79v1.15h15.54v15.73H965.79v1.15h15.54V474.4H965.79v1.14h15.54v15.74H965.79v1.15h15.54V500h1.1v-7.54h16.4V500h1.11v-7.54h16.39V500h1.11v-7.54h16.39V500h1.11v-7.54h16.39V500h1.11v-7.54h16.4V500h1.1v-7.54h16.28v-1.15h-16.28V475.54h16.28V474.4h-16.28V458.66h16.28v-1.15h-16.28V441.78h16.28v-1.15h-16.28V424.89Zm-68.78,49.51V458.66h16.39V474.4Zm0-16.89V441.78h16.39v15.73Zm16.39-16.88h-16.39V424.89h16.39Zm-17.5,0H999.94V424.89h16.39Zm0,1.15v15.73H999.94V441.78Zm0,16.88V474.4H999.94V458.66Zm18.61,15.74V458.66h16.39V474.4Zm0-16.89V441.78h16.39v15.73Zm0-16.88V424.89h16.39v15.74Zm-35,34.91h16.39v15.74H999.94Zm17.5,0h16.39v15.74h-16.39Zm17.5,0h16.39v15.74h-16.39Zm-36.11-50.65v15.74h-16.4V424.89Zm0,16.89v15.73h-16.4V441.78Zm0,16.88V474.4h-16.4V458.66Zm0,16.88v15.74h-16.4V475.54Zm53.61,15.74V475.54h16.4v15.74Zm0-16.88V458.66h16.4V474.4Zm0-16.89V441.78h16.4v15.73Zm0-16.88V424.89h16.4v15.74Z"
        transform="translate(-713.07 -317.36)"/>
    <rect class="cls-9"
        x="283.29"
        y="68.63"
        width="59.31"
        height="6.65"
        rx="3.32"/>
    <path 
        d="M1138.65,561c0,29.45-23.13,53.33-51.66,53.33s-51.66-23.88-51.66-53.33c0-24.42,15.89-45,37.58-51.33a50.07,50.07,0,0,1,14.08-2C1115.52,507.62,1138.65,531.5,1138.65,561Z"
        transform="translate(-713.07 -317.36)"/>
    <circle class="cls-13"
        cx="381.43"
        cy="241.37"
        r="51.66"/>
    <path 
        d="M1039.23,570.72,910.48,609.94a29.07,29.07,0,0,0,1,19.88,26,26,0,0,0,11,12.19l121.1-58.19a10.77,10.77,0,0,0,.38-6.88A10.91,10.91,0,0,0,1039.23,570.72Z"
        transform="translate(-713.07 -317.36)"/>
    <path 
        d="M1093.48,506.38"
        transform="translate(-713.07 -317.36)"/>
    <path class="cls-10"
        d="M1194.34,477.71a8.07,8.07,0,0,0-10.28,5l-61.15,177.15a8.08,8.08,0,0,0,5,10.28,8.17,8.17,0,0,0,2.64.44,8.08,8.08,0,0,0,7.64-5.45L1199.34,488A8.08,8.08,0,0,0,1194.34,477.71Z"
        transform="translate(-713.07 -317.36)"/>
</svg>