<svg xmlns="http://www.w3.org/2000/svg" xmlns:xlink="http://www.w3.org/1999/xlink" viewBox="0 0 100 62.43"><defs><style>.cls-1{fill:#2828d4;}.cls-2{fill:url(#linear-gradient);}.cls-3{fill:url(#linear-gradient-2);}</style><linearGradient id="linear-gradient" x1="-193.02" y1="794.39" x2="-210.21" y2="751.84" gradientTransform="matrix(0.34, 0.94, -0.94, 0.34, 872.52, -37.08)" gradientUnits="userSpaceOnUse"><stop offset="0.03" stop-color="#2828d4"/><stop offset="0.08" stop-color="#2828d4"/><stop offset="0.39" stop-color="#2828d4"/><stop offset="0.57" stop-color="#7070e2"/><stop offset="0.78" stop-color="#bdbdf2"/><stop offset="0.93" stop-color="#ededfb"/><stop offset="1" stop-color="#fff"/></linearGradient><linearGradient id="linear-gradient-2" x1="830.54" y1="1429.07" x2="805.04" y2="1447" gradientTransform="matrix(-0.91, 0.42, -0.42, -0.91, 1424.13, 998.16)" gradientUnits="userSpaceOnUse"><stop offset="0.29" stop-color="#2828d4"/><stop offset="0.52" stop-color="#6b6be1"/><stop offset="1" stop-color="#fff"/></linearGradient></defs><g id="Layer_2" data-name="Layer 2"><g id="Layer_1-2" data-name="Layer 1"><path class="cls-1" d="M42.23,50.38a23,23,0,1,1-6.81-31.74A23,23,0,0,1,42.23,50.38ZM6.51,27.28a19.58,19.58,0,1,0,27.07-5.8A19.61,19.61,0,0,0,6.51,27.28Z"/><path class="cls-1" d="M36,46.38a15.59,15.59,0,1,1-4.63-21.56A15.61,15.61,0,0,1,36,46.38ZM12.7,31.28a12.21,12.21,0,1,0,16.88-3.62A12.23,12.23,0,0,0,12.7,31.28Z"/><circle class="cls-1" cx="22.68" cy="37.6" r="7.97"/><path class="cls-1" d="M49.87,62.43a2.14,2.14,0,0,1-2.17-1.91C45.17,38.7,42.53,25.33,35.89,17.2c-3.15-3.85-7.31-6.68-13.09-8.9C17.52,6.28,10.59,4.64.34,3L.82,0C11.29,1.68,18.4,3.36,23.89,5.47,30.18,7.88,34.74,11,38.24,15.28c6.35,7.77,9.23,19.6,11.63,38,2.39-18.38,5.27-30.21,11.63-38,3.49-4.28,8-7.4,14.35-9.81C81.34,3.36,88.45,1.68,98.91,0l.48,3C89.15,4.64,82.22,6.28,76.93,8.3c-5.78,2.22-9.94,5-13.08,8.9C57.2,25.33,54.57,38.7,52,60.52A2.14,2.14,0,0,1,49.87,62.43Z"/><polygon class="cls-1" points="43.06 25.77 56.69 25.77 49.88 59.33 43.06 25.77"/><path class="cls-2" d="M71.92,60.3A23,23,0,1,1,99.42,43,23,23,0,0,1,71.92,60.3Zm9.49-41.46A19.57,19.57,0,1,0,96.12,42.29,19.6,19.6,0,0,0,81.41,18.84Z"/><path class="cls-3" d="M61.61,35.75A15.59,15.59,0,1,1,74.87,53.36,15.59,15.59,0,0,1,61.61,35.75Zm27.52,3.87A12.2,12.2,0,1,0,75.34,50,12.22,12.22,0,0,0,89.13,39.62Z"/><circle class="cls-1" cx="77.25" cy="37.56" r="7.97"/><path class="cls-1" d="M79.11,36.16V15h-.88a23.42,23.42,0,0,0-2.37,0h-.59v0a23,23,0,0,0,.64,45.81l.17-3.37a19.57,19.57,0,0,1-.81-39v4a15.58,15.58,0,0,0,2.34,31.05l-.12-3.38a12.2,12.2,0,0,1-2.22-24.26V36.16Z"/></g></g></svg>